<svg width="32" height="32" viewBox="0 0 32 32" fill="none" xmlns="http://www.w3.org/2000/svg">
<path d="M15.773 12L19.9997 16.2133V16C19.9997 14.9391 19.5782 13.9217 18.8281 13.1716C18.078 12.4214 17.0605 12 15.9997 12H15.773ZM10.0397 13.0667L12.1063 15.1333C12.0397 15.4133 11.9997 15.6933 11.9997 16C11.9997 17.0609 12.4211 18.0783 13.1712 18.8284C13.9214 19.5786 14.9388 20 15.9997 20C16.293 20 16.5863 19.96 16.8663 19.8933L18.933 21.96C18.0397 22.4 17.053 22.6667 15.9997 22.6667C14.2316 22.6667 12.5359 21.9643 11.2856 20.714C10.0354 19.4638 9.33301 17.7681 9.33301 16C9.33301 14.9467 9.59967 13.96 10.0397 13.0667ZM2.66634 5.69333L5.70634 8.73333L6.30634 9.33333C4.10634 11.0667 2.37301 13.3333 1.33301 16C3.63967 21.8533 9.33301 26 15.9997 26C18.0663 26 20.0397 25.6 21.8397 24.88L22.413 25.44L26.3063 29.3333L27.9997 27.64L4.35967 4M15.9997 9.33333C17.7678 9.33333 19.4635 10.0357 20.7137 11.286C21.964 12.5362 22.6663 14.2319 22.6663 16C22.6663 16.8533 22.493 17.68 22.1863 18.4267L26.093 22.3333C28.093 20.6667 29.693 18.48 30.6663 16C28.3597 10.1467 22.6663 6 15.9997 6C14.133 6 12.3463 6.33333 10.6663 6.93333L13.5597 9.8C14.3197 9.50667 15.133 9.33333 15.9997 9.33333Z" fill="#7B7B7B"/>
</svg>
