<svg width="32" height="32" viewBox="0 0 32 32" fill="none" xmlns="http://www.w3.org/2000/svg">
<path d="M15.9997 12.0001C14.9388 12.0001 13.9214 12.4215 13.1712 13.1716C12.4211 13.9218 11.9997 14.9392 11.9997 16.0001C11.9997 17.0609 12.4211 18.0783 13.1712 18.8285C13.9214 19.5786 14.9388 20.0001 15.9997 20.0001C17.0605 20.0001 18.078 19.5786 18.8281 18.8285C19.5782 18.0783 19.9997 17.0609 19.9997 16.0001C19.9997 14.9392 19.5782 13.9218 18.8281 13.1716C18.078 12.4215 17.0605 12.0001 15.9997 12.0001ZM15.9997 22.6667C14.2316 22.6667 12.5359 21.9643 11.2856 20.7141C10.0354 19.4639 9.33301 17.7682 9.33301 16.0001C9.33301 14.232 10.0354 12.5363 11.2856 11.286C12.5359 10.0358 14.2316 9.33339 15.9997 9.33339C17.7678 9.33339 19.4635 10.0358 20.7137 11.286C21.964 12.5363 22.6663 14.232 22.6663 16.0001C22.6663 17.7682 21.964 19.4639 20.7137 20.7141C19.4635 21.9643 17.7678 22.6667 15.9997 22.6667ZM15.9997 6.00006C9.33301 6.00006 3.63967 10.1467 1.33301 16.0001C3.63967 21.8534 9.33301 26.0001 15.9997 26.0001C22.6663 26.0001 28.3597 21.8534 30.6663 16.0001C28.3597 10.1467 22.6663 6.00006 15.9997 6.00006Z" fill="#7B7B7B"/>
</svg>
