<svg width="32" height="32" viewBox="0 0 32 32" fill="none" xmlns="http://www.w3.org/2000/svg">
<path d="M15.9997 22.6667C16.7069 22.6667 17.3852 22.3858 17.8853 21.8857C18.3854 21.3856 18.6663 20.7073 18.6663 20C18.6663 19.2928 18.3854 18.6145 17.8853 18.1144C17.3852 17.6143 16.7069 17.3334 15.9997 17.3334C15.2924 17.3334 14.6142 17.6143 14.1141 18.1144C13.614 18.6145 13.333 19.2928 13.333 20C13.333 20.7073 13.614 21.3856 14.1141 21.8857C14.6142 22.3858 15.2924 22.6667 15.9997 22.6667ZM23.9997 10.6667C24.7069 10.6667 25.3852 10.9477 25.8853 11.4478C26.3854 11.9479 26.6663 12.6261 26.6663 13.3334V26.6667C26.6663 27.374 26.3854 28.0522 25.8853 28.5523C25.3852 29.0524 24.7069 29.3334 23.9997 29.3334H7.99967C7.29243 29.3334 6.61415 29.0524 6.11406 28.5523C5.61396 28.0522 5.33301 27.374 5.33301 26.6667V13.3334C5.33301 12.6261 5.61396 11.9479 6.11406 11.4478C6.61415 10.9477 7.29243 10.6667 7.99967 10.6667H9.33301V8.00004C9.33301 6.23193 10.0354 4.53624 11.2856 3.286C12.5359 2.03575 14.2316 1.33337 15.9997 1.33337C16.8752 1.33337 17.7421 1.50581 18.5509 1.84084C19.3597 2.17588 20.0947 2.66694 20.7137 3.286C21.3328 3.90505 21.8238 4.63998 22.1589 5.44882C22.4939 6.25766 22.6663 7.12456 22.6663 8.00004V10.6667H23.9997ZM15.9997 4.00004C14.9388 4.00004 13.9214 4.42147 13.1712 5.17161C12.4211 5.92176 11.9997 6.93918 11.9997 8.00004V10.6667H19.9997V8.00004C19.9997 6.93918 19.5782 5.92176 18.8281 5.17161C18.078 4.42147 17.0605 4.00004 15.9997 4.00004Z" fill="#7B7B7B"/>
</svg>
