<svg width="32" height="32" viewBox="0 0 32 32" fill="none" xmlns="http://www.w3.org/2000/svg">
<g clip-path="url(#clip0_2515_794)">
<path d="M32 16.0002V15.9922C32 11.2575 29.9387 7.00549 26.6653 4.08149L26.6493 4.06816C26.6089 4.02461 26.5637 3.9857 26.5147 3.95216L26.512 3.95083C23.6046 1.39852 19.8661 -0.00567895 15.9973 0.00149218C11.9547 0.00149218 8.264 1.50283 5.45067 3.98016L5.468 3.96549C5.4342 3.99134 5.40295 4.02036 5.37467 4.05216C3.68344 5.5498 2.32971 7.39102 1.40313 9.45127C0.476557 11.5115 -0.00171118 13.7451 4.60018e-06 16.0042C4.60018e-06 20.7375 2.05867 24.9895 5.32934 27.9148L5.34534 27.9282C5.38789 27.976 5.43525 28.0193 5.48667 28.0575L5.48934 28.0588C8.39579 30.6077 12.1316 32.0099 15.9973 32.0028C19.8812 32.0088 23.633 30.5936 26.5453 28.0242L26.528 28.0388C28.2486 26.5429 29.6278 24.6949 30.5724 22.6197C31.5169 20.5446 32.0046 18.2908 32.0027 16.0108V16.0015L32 16.0002ZM26.0507 26.4068C25.2578 25.7661 24.4054 25.2027 23.5053 24.7242L23.4187 24.6815C24.236 22.3255 24.728 19.6095 24.7747 16.7842V16.7628H30.456C30.2649 20.4182 28.6916 23.8642 26.0547 26.4028L26.0507 26.4068ZM16.7627 24.4002C18.4733 24.4922 20.072 24.8682 21.5467 25.4802L21.4507 25.4455C20.2693 28.1388 18.6067 29.9895 16.7627 30.3962V24.4002ZM16.7627 22.8748V16.7628H23.2533C23.2017 19.2938 22.7628 21.802 21.952 24.2002L22.004 24.0255C20.3489 23.3442 18.5881 22.9553 16.8 22.8762L16.764 22.8748H16.7627ZM16.7627 15.2375V9.12549C18.5989 9.04196 20.4067 8.63998 22.1053 7.93749L22 7.97616C22.74 10.1348 23.1947 12.6228 23.2533 15.2095V15.2375H16.7627ZM16.7627 7.60016V1.60683C18.6067 2.01349 20.2693 3.85616 21.4507 6.55749C20.072 7.13083 18.4733 7.50549 16.8013 7.59883L16.7627 7.60016ZM20.568 2.26683C22.1396 2.78987 23.6091 3.58013 24.912 4.60283L24.8813 4.57883C24.2907 5.04283 23.628 5.48016 22.9293 5.86016L22.8547 5.89749C22.2916 4.56436 21.5152 3.3318 20.556 2.24816L20.568 2.26283V2.26683ZM15.2347 1.61083V7.60016C13.59 7.51636 11.9719 7.15107 10.4507 6.52016L10.5467 6.55483C11.7333 3.86149 13.3933 2.01216 15.2373 1.60549L15.2347 1.61083ZM9.144 5.89349C8.42142 5.50433 7.73279 5.05519 7.08534 4.55083L7.11734 4.57483C8.38223 3.58209 9.80584 2.81033 11.328 2.29216L11.4293 2.26149C10.4962 3.31647 9.73611 4.51263 9.17734 5.80549L9.144 5.89349ZM15.2373 9.12416V15.2362H8.74667C8.80534 12.6215 9.26 10.1335 10.052 7.80016L10 7.97483C11.6551 8.65285 13.4146 9.04117 15.2013 9.12283L15.2373 9.12416ZM15.2373 16.7615V22.8735C13.4011 22.957 11.5933 23.359 9.89467 24.0615L10 24.0228C9.26 21.8655 8.80534 19.3762 8.74667 16.7895V16.7615H15.2373ZM15.2373 24.3988V30.3922C13.3933 29.9855 11.7307 28.1428 10.5493 25.4415C11.928 24.8682 13.5267 24.4948 15.1987 24.4015L15.2373 24.3988ZM11.4373 29.7322C9.86718 29.2083 8.39805 28.4201 7.09334 27.4015L7.12534 27.4255C7.716 26.9615 8.37867 26.5242 9.07734 26.1442L9.152 26.1068C9.71091 27.4402 10.4872 28.6716 11.4493 29.7508L11.4373 29.7375V29.7322ZM22.856 26.1055C23.6293 26.5255 24.292 26.9615 24.9147 27.4482L24.8827 27.4242C23.6178 28.4169 22.1942 29.1887 20.672 29.7068L20.5707 29.7375C21.5037 28.6829 22.2638 27.4872 22.8227 26.1948L22.856 26.1082V26.1055ZM30.456 15.2375H24.7747C24.733 12.4788 24.2569 9.74398 23.364 7.13349L23.4187 7.31749C24.3605 6.82146 25.2522 6.23563 26.0813 5.56816L26.0493 5.59216C28.6818 8.12051 30.2559 11.5542 30.4533 15.1988L30.456 15.2375ZM5.94934 5.59349C6.71734 6.21749 7.58 6.78949 8.49467 7.27616L8.58134 7.31883C7.764 9.67483 7.27201 12.3908 7.22534 15.2162V15.2375H1.54267C1.73373 11.5822 3.30709 8.13612 5.94401 5.59749L5.94934 5.59349ZM1.544 16.7628H7.22534C7.26703 19.5215 7.74309 22.2563 8.63601 24.8668L8.58134 24.6828C7.58 25.2148 6.71867 25.7868 5.91867 26.4322L5.95067 26.4082C3.31822 23.8798 1.74411 20.4461 1.54667 16.8015L1.54534 16.7642L1.544 16.7628Z" fill="#A8A8A8"/>
</g>
<defs>
<clipPath id="clip0_2515_794">
<rect width="32" height="32" fill="white"/>
</clipPath>
</defs>
</svg>
