<svg width="200" height="94" viewBox="0 0 200 94" fill="none" xmlns="http://www.w3.org/2000/svg">
<g filter="url(#filter0_f_2_1880)">
<rect x="40" y="40" width="120" height="14" fill="#13BAC0"/>
</g>
<path d="M148.55 56.3391C147.689 56.3391 146.909 56.1177 146.21 55.6749C145.516 55.2271 144.965 54.5703 144.557 53.7043C144.153 52.8334 143.952 51.7657 143.952 50.5011C143.952 49.2022 144.161 48.1222 144.579 47.2611C144.997 46.3951 145.553 45.7481 146.247 45.32C146.946 44.887 147.711 44.6705 148.542 44.6705C149.177 44.6705 149.706 44.7788 150.129 44.9953C150.557 45.2069 150.902 45.4726 151.162 45.7924C151.428 46.1073 151.63 46.4173 151.768 46.7223H151.863V41.0393H155V56.1546H151.9V54.339H151.768C151.62 54.6539 151.411 54.9663 151.14 55.2763C150.875 55.5814 150.528 55.8348 150.1 56.0365C149.676 56.2382 149.16 56.3391 148.55 56.3391ZM149.546 53.8371C150.053 53.8371 150.481 53.6994 150.83 53.4238C151.184 53.1434 151.455 52.7522 151.642 52.2503C151.834 51.7484 151.93 51.1605 151.93 50.4864C151.93 49.8123 151.836 49.2268 151.649 48.7298C151.462 48.2329 151.192 47.8491 150.838 47.5785C150.483 47.3078 150.053 47.1725 149.546 47.1725C149.029 47.1725 148.594 47.3128 148.24 47.5932C147.885 47.8737 147.617 48.2624 147.435 48.7593C147.253 49.2563 147.162 49.832 147.162 50.4864C147.162 51.1457 147.253 51.7288 147.435 52.2356C147.622 52.7374 147.89 53.1311 148.24 53.4164C148.594 53.6969 149.029 53.8371 149.546 53.8371Z" fill="white"/>
<path d="M137.117 56.376C135.951 56.376 134.947 56.1398 134.106 55.6675C133.27 55.1902 132.625 54.5161 132.172 53.6452C131.72 52.7694 131.493 51.7337 131.493 50.538C131.493 49.3719 131.72 48.3485 132.172 47.4677C132.625 46.587 133.262 45.9006 134.084 45.4086C134.91 44.9165 135.88 44.6705 136.992 44.6705C137.74 44.6705 138.436 44.7911 139.08 45.0322C139.73 45.2683 140.296 45.6251 140.778 46.1023C141.265 46.5796 141.644 47.1799 141.915 47.9032C142.185 48.6216 142.32 49.4629 142.32 50.4273V51.2908H132.748V49.3424H139.361C139.361 48.8897 139.263 48.4887 139.066 48.1394C138.869 47.79 138.596 47.5169 138.246 47.3201C137.902 47.1184 137.501 47.0175 137.043 47.0175C136.566 47.0175 136.143 47.1282 135.774 47.3496C135.41 47.5661 135.125 47.8589 134.918 48.2279C134.711 48.592 134.605 48.998 134.6 49.4457V51.2982C134.6 51.8591 134.704 52.3438 134.91 52.7522C135.122 53.1606 135.42 53.4755 135.804 53.6969C136.187 53.9183 136.642 54.029 137.169 54.029C137.518 54.029 137.838 53.9798 138.128 53.8814C138.419 53.783 138.667 53.6354 138.874 53.4386C139.08 53.2417 139.238 53.0007 139.346 52.7153L142.254 52.9072C142.106 53.6059 141.804 54.216 141.346 54.7375C140.894 55.2542 140.308 55.6576 139.59 55.9479C138.876 56.2333 138.052 56.376 137.117 56.376Z" fill="white"/>
<path d="M124.696 56.376C123.53 56.376 122.526 56.1398 121.684 55.6675C120.848 55.1902 120.203 54.5161 119.751 53.6452C119.298 52.7694 119.072 51.7337 119.072 50.538C119.072 49.3719 119.298 48.3485 119.751 47.4677C120.203 46.587 120.841 45.9006 121.662 45.4086C122.489 44.9165 123.458 44.6705 124.57 44.6705C125.318 44.6705 126.014 44.7911 126.659 45.0322C127.308 45.2683 127.874 45.6251 128.356 46.1023C128.843 46.5796 129.222 47.1799 129.493 47.9032C129.764 48.6216 129.899 49.4629 129.899 50.4273V51.2908H120.326V49.3424H126.939C126.939 48.8897 126.841 48.4887 126.644 48.1394C126.447 47.79 126.174 47.5169 125.825 47.3201C125.48 47.1184 125.079 47.0175 124.622 47.0175C124.145 47.0175 123.721 47.1282 123.352 47.3496C122.988 47.5661 122.703 47.8589 122.496 48.2279C122.29 48.592 122.184 48.998 122.179 49.4457V51.2982C122.179 51.8591 122.282 52.3438 122.489 52.7522C122.7 53.1606 122.998 53.4755 123.382 53.6969C123.766 53.9183 124.221 54.029 124.747 54.029C125.097 54.029 125.416 53.9798 125.707 53.8814C125.997 53.783 126.246 53.6354 126.452 53.4386C126.659 53.2417 126.816 53.0007 126.925 52.7153L129.832 52.9072C129.685 53.6059 129.382 54.216 128.925 54.7375C128.472 55.2542 127.886 55.6576 127.168 55.9479C126.455 56.2333 125.63 56.376 124.696 56.376Z" fill="white"/>
<path d="M102.061 63.2231V41.0231H117.431V44.8929H106.969V50.1827H116.411V54.0526H106.969V63.2231H102.061Z" fill="white"/>
<path d="M90.6299 52.9237C89.7689 52.9237 88.989 52.7023 88.2903 52.2595C87.5965 51.8117 87.0454 51.1549 86.6371 50.2889C86.2336 49.418 86.0319 48.3503 86.0319 47.0858C86.0319 45.7868 86.241 44.7068 86.6592 43.8457C87.0774 42.9797 87.6334 42.3327 88.3272 41.9046C89.0259 41.4717 89.791 41.2552 90.6225 41.2552C91.2573 41.2552 91.7862 41.3634 92.2093 41.5799C92.6374 41.7915 92.9818 42.0572 93.2426 42.377C93.5083 42.6919 93.71 43.0019 93.8478 43.3069H93.9438V37.624H97.0805V52.7392H93.9807V50.9236H93.8478C93.7002 51.2385 93.4911 51.551 93.2205 51.8609C92.9548 52.166 92.6079 52.4194 92.1798 52.6211C91.7567 52.8229 91.24 52.9237 90.6299 52.9237ZM91.6263 50.4218C92.1331 50.4218 92.5611 50.284 92.9105 50.0084C93.2648 49.728 93.5354 49.3368 93.7223 48.8349C93.9142 48.3331 94.0102 47.7451 94.0102 47.071C94.0102 46.3969 93.9167 45.8114 93.7297 45.3144C93.5428 44.8175 93.2721 44.4337 92.9179 44.1631C92.5636 43.8925 92.1331 43.7572 91.6263 43.7572C91.1096 43.7572 90.6742 43.8974 90.3199 44.1778C89.9657 44.4583 89.6975 44.847 89.5155 45.344C89.3334 45.8409 89.2424 46.4166 89.2424 47.071C89.2424 47.7303 89.3334 48.3134 89.5155 48.8202C89.7024 49.3221 89.9706 49.7157 90.3199 50.0011C90.6742 50.2815 91.1096 50.4218 91.6263 50.4218Z" fill="white"/>
<path d="M78.4757 52.7392V41.4028H81.5238V43.3807H81.6419C81.8486 42.6771 82.1954 42.1457 82.6825 41.7866C83.1697 41.4224 83.7306 41.2404 84.3653 41.2404C84.5228 41.2404 84.6925 41.2502 84.8746 41.2699C85.0566 41.2896 85.2165 41.3167 85.3543 41.3511V44.1409C85.2067 44.0966 85.0025 44.0573 84.7417 44.0228C84.4809 43.9884 84.2423 43.9712 84.0258 43.9712C83.5633 43.9712 83.15 44.072 82.7859 44.2738C82.4267 44.4706 82.1413 44.7461 81.9297 45.1004C81.7231 45.4547 81.6198 45.8631 81.6198 46.3256V52.7392H78.4757Z" fill="white"/>
<path d="M71.2211 52.9606C70.0549 52.9606 69.0512 52.7245 68.2098 52.2521C67.3734 51.7748 66.7288 51.1007 66.2761 50.2298C65.8235 49.354 65.5971 48.3183 65.5971 47.1226C65.5971 45.9565 65.8235 44.9331 66.2761 44.0524C66.7288 43.1716 67.366 42.4852 68.1877 41.9932C69.0143 41.5012 69.9836 41.2551 71.0956 41.2551C71.8435 41.2551 72.5397 41.3757 73.1843 41.6168C73.8338 41.853 74.3996 42.2097 74.8818 42.687C75.3689 43.1642 75.7478 43.7645 76.0184 44.4878C76.289 45.2062 76.4243 46.0476 76.4243 47.0119V47.8755H66.8518V45.927H73.4647C73.4647 45.4743 73.3663 45.0733 73.1695 44.724C72.9727 44.3746 72.6996 44.1016 72.3503 43.9048C72.0059 43.703 71.6049 43.6021 71.1473 43.6021C70.67 43.6021 70.2468 43.7129 69.8778 43.9343C69.5137 44.1508 69.2283 44.4435 69.0217 44.8126C68.815 45.1767 68.7092 45.5826 68.7043 46.0303V47.8828C68.7043 48.4438 68.8076 48.9284 69.0143 49.3368C69.2259 49.7452 69.5235 50.0601 69.9073 50.2815C70.2911 50.5029 70.7463 50.6136 71.2727 50.6136C71.6221 50.6136 71.9419 50.5644 72.2322 50.466C72.5225 50.3676 72.771 50.22 72.9776 50.0232C73.1843 49.8264 73.3417 49.5853 73.45 49.2999L76.3579 49.4918C76.2103 50.1905 75.9077 50.8006 75.4501 51.3222C74.9974 51.8388 74.4119 52.2423 73.6935 52.5326C72.9801 52.8179 72.1559 52.9606 71.2211 52.9606Z" fill="white"/>
<path d="M62.7846 30.7769V52.9769H58.6833L48.9127 39.0044H48.7482V52.9769H44V30.7769H48.167L57.8609 44.7386H58.0583V30.7769H62.7846Z" fill="white"/>
<defs>
<filter id="filter0_f_2_1880" x="0" y="-7.62939e-06" width="200" height="94" filterUnits="userSpaceOnUse" color-interpolation-filters="sRGB">
<feFlood flood-opacity="0" result="BackgroundImageFix"/>
<feBlend mode="normal" in="SourceGraphic" in2="BackgroundImageFix" result="shape"/>
<feGaussianBlur stdDeviation="20" result="effect1_foregroundBlur_2_1880"/>
</filter>
</defs>
</svg>
